<svg xmlns="http://www.w3.org/2000/svg" xmlns:xlink="http://www.w3.org/1999/xlink" width="500" zoomAndPan="magnify" viewBox="0 0 375 374.999991" height="500" preserveAspectRatio="xMidYMid meet" version="1.0"><path fill="#187a7b" d="M 94.546875 281.195312 L 0.761719 375 L 0.761719 187.496094 L 0.871094 187.496094 Z M 94.546875 281.195312 " fill-opacity="1" fill-rule="nonzero"/><path fill="#197172" d="M 188.3125 0 L 188.3125 187.445312 L 94.546875 93.703125 L 188.230469 0 Z M 188.3125 0 " fill-opacity="1" fill-rule="nonzero"/><path fill="#148b8f" d="M 282.066406 93.703125 L 188.3125 187.445312 L 188.3125 0 L 188.390625 0 Z M 282.066406 93.703125 " fill-opacity="1" fill-rule="nonzero"/><path fill="#64aebb" d="M 375.722656 0 L 282.066406 93.703125 L 188.390625 0 Z M 375.722656 0 " fill-opacity="1" fill-rule="nonzero"/><path fill="#0d8a8e" d="M 188.25 187.496094 L 94.546875 281.195312 L 0.871094 187.496094 Z M 188.25 187.496094 " fill-opacity="1" fill-rule="nonzero"/><path fill="#61a8ac" d="M 188.3125 187.445312 L 188.25 187.496094 L 0.871094 187.496094 L 0.820312 187.445312 L 94.546875 93.703125 Z M 188.3125 187.445312 " fill-opacity="1" fill-rule="nonzero"/><path fill="#187d8f" d="M 281.957031 281.117188 L 188.3125 374.777344 L 188.3125 187.445312 Z M 281.957031 281.117188 " fill-opacity="1" fill-rule="nonzero"/><path fill="#117283" d="M 188.3125 187.496094 L 188.3125 374.777344 L 188.230469 374.859375 L 94.546875 281.195312 L 188.25 187.496094 Z M 188.3125 187.496094 " fill-opacity="1" fill-rule="nonzero"/><path fill="#279fb0" d="M 375.722656 374.859375 L 188.3125 374.859375 L 188.3125 374.777344 L 281.957031 281.117188 Z M 375.722656 374.859375 " fill-opacity="1" fill-rule="nonzero"/></svg>